<svg xmlns="http://www.w3.org/2000/svg" viewBox="0 0 100 100" width="100" height="100">
  <rect width="100" height="100" rx="16" fill="#f20c32" />
  <path 
    fill="#ffffff"
    fill-rule="evenodd"
    d="M 25,68
       C 20,68 15,68 11,65
       C 13,62 17,55 19,48
       C 16,46 13,40 18,35
       C 20,36 23,38 25,38
       C 23,29 23,19 32,12
       C 36,18 39,24 42,28
       C 45,25 49,21 55,23
       C 52,29 49,35 48,40
       C 53.5,39 61,38 70,42
       C 64,45 58,48 52,53
       C 63,51 74,48 90,52
       C 70,68 55,80 40,83
       C 35,84 29,79 27,72
       C 25,71 25,69 25,68 Z
       
       M 42,48
       C 45,48.5 48,49 49,50
       C 46,52 43,53.5 41,53
       C 41,51.5 41.5,49.5 42,48 Z"
  />
</svg>
